<svg width="364" height="43" viewBox="0 0 364 43" fill="none" xmlns="http://www.w3.org/2000/svg">
<g clip-path="url(#clip0_305_5)">
<path d="M22.1005 4C18.5467 4 15.1385 5.41173 12.6256 7.92462L4.42462 16.1256C1.91173 18.6385 0.5 22.0467 0.5 25.6005C0.5 33.0009 6.49916 39 13.8995 39C17.4533 39 20.8615 37.5882 23.3744 35.0753L29.0471 29.4027C29.0471 29.4025 29.0472 29.4028 29.0471 29.4027L45.5753 12.8744C46.7755 11.6742 48.4032 11 50.1005 11C52.942 11 55.3511 12.852 56.1863 15.4147L61.4026 10.1985C59.0229 6.4714 54.8503 4 50.1005 4C46.5467 4 43.1385 5.41173 40.6256 7.92462L18.4247 30.1256C17.2245 31.3258 15.5968 32 13.8995 32C10.3651 32 7.5 29.1349 7.5 25.6005C7.5 23.9032 8.17423 22.2755 9.37437 21.0753L17.5753 12.8744C18.7755 11.6742 20.4032 11 22.1005 11C24.9421 11 27.3511 12.8521 28.1863 15.4149L33.4027 10.1986C31.023 6.47147 26.8504 4 22.1005 4Z" fill="#394149"/>
<path d="M46.4244 30.1256C45.2243 31.3258 43.5965 32 41.8993 32C39.0581 32 36.6493 30.1485 35.8138 27.5861L30.5977 32.8023C32.9774 36.5289 37.1498 39 41.8993 39C45.4531 39 48.8612 37.5882 51.3741 35.0753L73.5751 12.8744C74.7752 11.6742 76.403 11 78.1002 11C81.6347 11 84.4998 13.8651 84.4998 17.3995C84.4998 19.0968 83.8255 20.7245 82.6254 21.9247L74.4244 30.1256C73.2243 31.3258 71.5965 32 69.8993 32C67.0579 32 64.6489 30.1481 63.8136 27.5856L58.5974 32.8018C60.9771 36.5288 65.1495 39 69.8993 39C73.4531 39 76.8612 37.5882 79.3741 35.0753L87.5751 26.8744C90.088 24.3615 91.4998 20.9533 91.4998 17.3995C91.4998 9.99916 85.5006 4 78.1002 4C74.5465 4 71.1383 5.41173 68.6254 7.92462L46.4244 30.1256Z" fill="#394149"/>
</g>
<path d="M113.84 8.5C120.595 8.5 125.74 13.82 125.74 20.75C125.74 27.68 120.595 33 113.84 33H104.04V8.5H113.84ZM113.84 27.61C117.69 27.61 120.35 24.95 120.35 20.75C120.35 16.55 117.69 13.89 113.84 13.89H109.64V27.61H113.84ZM130.638 13.96C128.923 13.96 127.488 12.525 127.488 10.81C127.488 9.095 128.923 7.66 130.638 7.66C132.353 7.66 133.788 9.095 133.788 10.81C133.788 12.525 132.353 13.96 130.638 13.96ZM128.013 33V15.5H133.263V33H128.013ZM149.11 15.5H154.36V33H149.11V31.355C147.955 32.685 146.24 33.49 143.895 33.49C139.31 33.49 135.53 29.465 135.53 24.25C135.53 19.035 139.31 15.01 143.895 15.01C146.24 15.01 147.955 15.815 149.11 17.145V15.5ZM144.945 28.52C147.36 28.52 149.11 26.875 149.11 24.25C149.11 21.625 147.36 19.98 144.945 19.98C142.53 19.98 140.78 21.625 140.78 24.25C140.78 26.875 142.53 28.52 144.945 28.52ZM167.767 15.01C171.302 15.01 174.312 17.53 174.312 22.255V33H169.062V23.025C169.062 20.855 167.697 19.84 166.017 19.84C164.092 19.84 162.762 20.96 162.762 23.445V33H157.512V15.5H162.762V17.145C163.707 15.85 165.457 15.01 167.767 15.01ZM187.472 15.01C191.007 15.01 194.017 17.53 194.017 22.255V33H188.767V23.025C188.767 20.855 187.402 19.84 185.722 19.84C183.797 19.84 182.467 20.96 182.467 23.445V33H177.217V15.5H182.467V17.145C183.412 15.85 185.162 15.01 187.472 15.01ZM201.612 26.35C202.277 28.17 203.887 28.8 205.812 28.8C207.247 28.8 208.472 28.24 209.172 27.47L213.372 29.885C211.657 32.265 209.067 33.49 205.742 33.49C199.757 33.49 196.047 29.465 196.047 24.25C196.047 19.035 199.827 15.01 205.357 15.01C210.467 15.01 214.247 18.965 214.247 24.25C214.247 24.985 214.177 25.685 214.037 26.35H201.612ZM201.507 22.43H209.032C208.472 20.4 206.897 19.665 205.322 19.665C203.327 19.665 201.997 20.645 201.507 22.43ZM233.185 33.455C230.898 33.455 228.938 32.9183 227.305 31.845C225.695 30.7717 224.563 29.3017 223.91 27.435L226.71 25.825C227.667 28.7883 229.848 30.27 233.255 30.27C234.935 30.27 236.218 29.9317 237.105 29.255C237.992 28.555 238.435 27.6333 238.435 26.49C238.435 25.3233 237.992 24.4483 237.105 23.865C236.218 23.2817 234.737 22.6633 232.66 22.01C231.633 21.6833 230.852 21.4267 230.315 21.24C229.778 21.03 229.102 20.7267 228.285 20.33C227.492 19.91 226.897 19.49 226.5 19.07C226.103 18.6267 225.742 18.055 225.415 17.355C225.112 16.655 224.96 15.8617 224.96 14.975C224.96 12.8517 225.707 11.1717 227.2 9.935C228.693 8.675 230.513 8.045 232.66 8.045C234.597 8.045 236.277 8.535 237.7 9.515C239.147 10.495 240.232 11.79 240.955 13.4L238.225 14.975C237.175 12.455 235.32 11.195 232.66 11.195C231.33 11.195 230.257 11.5217 229.44 12.175C228.623 12.8283 228.215 13.715 228.215 14.835C228.215 15.9083 228.6 16.725 229.37 17.285C230.14 17.845 231.47 18.4283 233.36 19.035C234.037 19.245 234.515 19.3967 234.795 19.49C235.075 19.5833 235.507 19.7467 236.09 19.98C236.697 20.2133 237.14 20.4 237.42 20.54C237.7 20.68 238.073 20.8783 238.54 21.135C239.03 21.3917 239.392 21.6367 239.625 21.87C239.858 22.1033 240.127 22.395 240.43 22.745C240.757 23.0717 240.99 23.41 241.13 23.76C241.27 24.11 241.387 24.5183 241.48 24.985C241.597 25.4283 241.655 25.9067 241.655 26.42C241.655 28.5667 240.873 30.2817 239.31 31.565C237.747 32.825 235.705 33.455 233.185 33.455ZM259.601 8.5V11.58H252.356V33H249.136V11.58H241.926V8.5H259.601ZM277.627 31.11C275.924 32.6733 273.719 33.455 271.012 33.455C268.305 33.455 266.089 32.6733 264.362 31.11C262.659 29.5233 261.807 27.4117 261.807 24.775V8.5H265.062V24.635C265.062 26.3617 265.575 27.7383 266.602 28.765C267.629 29.7683 269.099 30.27 271.012 30.27C272.925 30.27 274.395 29.7683 275.422 28.765C276.449 27.7383 276.962 26.3617 276.962 24.635V8.5H280.182V24.775C280.182 27.4117 279.33 29.5233 277.627 31.11ZM294.014 8.5C297.351 8.5 300.116 9.69 302.309 12.07C304.526 14.4267 305.634 17.32 305.634 20.75C305.634 24.18 304.526 27.085 302.309 29.465C300.116 31.8217 297.351 33 294.014 33H284.459V8.5H294.014ZM294.014 29.92C296.511 29.92 298.553 29.045 300.139 27.295C301.726 25.545 302.519 23.3633 302.519 20.75C302.519 18.1367 301.726 15.955 300.139 14.205C298.553 12.455 296.511 11.58 294.014 11.58H287.714V29.92H294.014ZM308.881 8.5H312.136V33H308.881V8.5ZM337.062 29.745C334.612 32.2183 331.614 33.455 328.067 33.455C324.52 33.455 321.522 32.2183 319.072 29.745C316.622 27.2717 315.397 24.2733 315.397 20.75C315.397 17.2033 316.622 14.205 319.072 11.755C321.522 9.28166 324.52 8.045 328.067 8.045C331.614 8.045 334.612 9.28166 337.062 11.755C339.535 14.205 340.772 17.2033 340.772 20.75C340.772 24.2733 339.535 27.2717 337.062 29.745ZM321.312 27.54C323.132 29.36 325.384 30.27 328.067 30.27C330.75 30.27 332.99 29.36 334.787 27.54C336.607 25.6967 337.517 23.4333 337.517 20.75C337.517 18.0433 336.607 15.78 334.787 13.96C332.99 12.1167 330.75 11.195 328.067 11.195C325.384 11.195 323.132 12.1167 321.312 13.96C319.515 15.78 318.617 18.0433 318.617 20.75C318.617 23.4333 319.515 25.6967 321.312 27.54Z" fill="black"/>
<path d="M353.008 5.225C358.008 5.225 362.058 9.25 362.058 14.25C362.058 19.25 358.008 23.275 353.008 23.275C348.008 23.275 343.958 19.25 343.958 14.25C343.958 9.25 348.008 5.225 353.008 5.225ZM353.008 22.675C357.633 22.675 361.383 18.925 361.383 14.25C361.383 9.575 357.633 5.825 353.008 5.825C348.383 5.825 344.608 9.575 344.608 14.25C344.608 18.925 348.383 22.675 353.008 22.675ZM356.508 12.525C356.508 13.8 355.908 14.775 354.633 15.175L356.733 18.875H355.408L353.458 15.4H353.108H351.533V18.875H350.333V9.625H353.108C355.433 9.625 356.508 11.05 356.508 12.525ZM351.533 14.25H353.158C354.633 14.25 355.308 13.575 355.308 12.525C355.308 11.5 354.583 10.775 353.158 10.775H351.533V14.25Z" fill="black"/>
<defs>
<clipPath id="clip0_305_5">
<rect width="91" height="35" fill="white" transform="translate(0.5 4)"/>
</clipPath>
</defs>
</svg>
